<svg viewBox="0 0 16 16" fill="none" xmlns="http://www.w3.org/2000/svg" id="icon-download">
    <path d="M8.00008 9.33334L7.57582 9.75761L8.00008 10.1819L8.42435 9.75761L8.00008 9.33334ZM8.60008 3.33334C8.60008 3.00197 8.33145 2.73334 8.00008 2.73334C7.66871 2.73334 7.40008 3.00197 7.40008 3.33334L8.60008 3.33334ZM4.24248 6.42427L7.57582 9.75761L8.42435 8.90908L5.09101 5.57575L4.24248 6.42427ZM8.42435 9.75761L11.7577 6.42427L10.9092 5.57575L7.57582 8.90908L8.42435 9.75761ZM8.60008 9.33334L8.60008 3.33334L7.40008 3.33334L7.40008 9.33334L8.60008 9.33334Z" fill="currentColor" />
    <path d="M3.33325 10.6667L3.33325 11.3333C3.33325 12.0697 3.93021 12.6667 4.66659 12.6667L11.3333 12.6667C12.0696 12.6667 12.6666 12.0697 12.6666 11.3333V10.6667" stroke="currentColor" stroke-width="1.2" />
</svg>