<svg viewBox="0 0 16 16" fill="none" xmlns="http://www.w3.org/2000/svg" id="icon-export">
    <path d="M8.00008 3.98965L7.66624 3.61743L8.00008 3.31801L8.33392 3.61743L8.00008 3.98965ZM8.50008 9.37103C8.50008 9.64717 8.27622 9.87103 8.00008 9.87103C7.72394 9.87103 7.50008 9.64717 7.50008 9.37103L8.50008 9.37103ZM4.3329 6.60709L7.66624 3.61743L8.33392 4.36188L5.00059 7.35153L4.3329 6.60709ZM8.33392 3.61743L11.6673 6.60709L10.9996 7.35153L7.66624 4.36188L8.33392 3.61743ZM8.50008 3.98965L8.50008 9.37103L7.50008 9.37103L7.50008 3.98965L8.50008 3.98965Z" fill="currentColor" />
    <path d="M3.33325 10.5669L3.33325 11.1648C3.33325 11.8253 3.93021 12.3607 4.66659 12.3607L11.3333 12.3607C12.0696 12.3607 12.6666 11.8253 12.6666 11.1648V10.5669" stroke="currentColor" />
</svg>
    