<svg fill="none" xmlns="http://www.w3.org/2000/svg" id="icon-export">
<path d="M13.9888 5L13.655 4.62778L13.9888 4.32836L14.3227 4.62778L13.9888 5ZM14.4888 14C14.4888 14.2761 14.265 14.5 13.9888 14.5C13.7127 14.5 13.4888 14.2761 13.4888 14L14.4888 14ZM8.08022 9.62778L13.655 4.62778L14.3227 5.37222L8.74791 10.3722L8.08022 9.62778ZM14.3227 4.62778L19.8975 9.62778L19.2298 10.3722L13.655 5.37222L14.3227 4.62778ZM14.4888 5L14.4888 14L13.4888 14L13.4888 5L14.4888 5Z" fill="currentColor"/>
<path d="M6.18414 16L6.18414 17C6.18414 18.1046 7.18251 19 8.41406 19L19.5636 19C20.7952 19 21.7935 18.1046 21.7935 17V16" stroke="currentColor"/>
</svg>
