<svg viewBox="0 0 16 16" fill="none" xmlns="http://www.w3.org/2000/svg" id="icon-github">
    <path d="M8.01327 0.059967C3.60375 0.059967 0.0280762 3.69594 0.0280762 8.18148C0.0280762 11.7698 2.31608 14.8142 5.48884 15.8881C5.88791 15.9633 6.03442 15.7119 6.03442 15.4974C6.03442 15.3037 6.02702 14.664 6.02358 13.9853C3.80209 14.4766 3.33333 13.0271 3.33333 13.0271C2.97009 12.0883 2.44672 11.8387 2.44672 11.8387C1.72222 11.3346 2.50133 11.345 2.50133 11.345C3.30318 11.4021 3.7254 12.1819 3.7254 12.1819C4.4376 13.4235 5.59343 13.0646 6.0491 12.8571C6.12077 12.3323 6.32771 11.9737 6.55608 11.7711C4.78246 11.5657 2.91799 10.8693 2.91799 7.7573C2.91799 6.8706 3.22993 6.14609 3.74074 5.57733C3.65783 5.37264 3.38451 4.54673 3.81809 3.42803C3.81809 3.42803 4.48864 3.20975 6.01459 4.26053C6.65155 4.08058 7.33465 3.99034 8.01327 3.98724C8.69188 3.99034 9.37551 4.08058 10.0137 4.26053C11.5378 3.20975 12.2074 3.42803 12.2074 3.42803C12.642 4.54673 12.3686 5.37264 12.2857 5.57733C12.7977 6.14609 13.1075 6.8706 13.1075 7.7573C13.1075 10.8767 11.2394 11.5635 9.46133 11.7646C9.74775 12.0166 10.003 12.5109 10.003 13.2686C10.003 14.3552 9.9937 15.2298 9.9937 15.4974C9.9937 15.7135 10.1374 15.9668 10.5422 15.887C13.7132 14.8119 15.9983 11.7686 15.9983 8.18148C15.9983 3.69594 12.4232 0.059967 8.01327 0.059967" fill="currentColor" />
    <path d="M3.05318 11.7207C3.03562 11.7612 2.97328 11.7732 2.9165 11.7455C2.85865 11.719 2.82616 11.664 2.84492 11.6235C2.86209 11.5819 2.92455 11.5705 2.98227 11.5981C3.04024 11.6247 3.07326 11.6802 3.05318 11.7207" fill="currentColor" />
    <path d="M3.37667 12.0877C3.33863 12.1236 3.26428 12.1069 3.21383 12.0501C3.16167 11.9935 3.1519 11.9178 3.19046 11.8813C3.22968 11.8454 3.30179 11.8622 3.35409 11.9189C3.40625 11.9762 3.41642 12.0513 3.37667 12.0877" fill="currentColor" />
    <path d="M3.69148 12.5554C3.64261 12.59 3.56272 12.5576 3.51332 12.4854C3.46446 12.4131 3.46446 12.3265 3.51438 12.2918C3.5639 12.2571 3.64261 12.2883 3.69267 12.36C3.7414 12.4333 3.7414 12.5201 3.69148 12.5554" fill="currentColor" />
    <path d="M4.12274 13.0073C4.07903 13.0564 3.98593 13.0432 3.91778 12.9762C3.84805 12.9107 3.82864 12.8178 3.87248 12.7687C3.91672 12.7195 4.01036 12.7334 4.07903 12.7998C4.14823 12.8652 4.16936 12.9588 4.12274 13.0073" fill="currentColor" />
    <path d="M4.71763 13.2697C4.69835 13.3333 4.60868 13.3622 4.51835 13.3352C4.42815 13.3073 4.36911 13.2328 4.38734 13.1685C4.40609 13.1045 4.49616 13.0744 4.58715 13.1033C4.67722 13.131 4.73638 13.205 4.71763 13.2697" fill="currentColor" />
    <path d="M5.37127 13.3184C5.37352 13.3854 5.29692 13.4409 5.2021 13.442C5.10675 13.4443 5.02962 13.3901 5.02856 13.3242C5.02856 13.2565 5.10344 13.2015 5.1988 13.1999C5.29362 13.198 5.37127 13.2518 5.37127 13.3184" fill="currentColor" />
    <path d="M5.97943 13.2131C5.99079 13.2784 5.92489 13.3455 5.83073 13.3633C5.73815 13.3806 5.65244 13.3403 5.64069 13.2755C5.6292 13.2085 5.69629 13.1414 5.78873 13.124C5.88303 13.1074 5.96741 13.1466 5.97943 13.2131" fill="currentColor" />
</svg>
    