<svg width="12" heigth="12" viewBox="0 0 12 12" fill="none" xmlns="http://www.w3.org/2000/svg" id="icon-github">
<path d="M6.01004 0.0449829C2.7029 0.0449829 0.0211487 2.77196 0.0211487 6.13612C0.0211487 8.82739 1.73715 11.1106 4.11672 11.9161C4.41602 11.9725 4.52591 11.7839 4.52591 11.6231C4.52591 11.4778 4.52036 10.998 4.51778 10.489C2.85166 10.8575 2.50009 9.77031 2.50009 9.77031C2.22766 9.06625 1.83513 8.87903 1.83513 8.87903C1.29176 8.50098 1.87609 8.50875 1.87609 8.50875C2.47748 8.55161 2.79414 9.13645 2.79414 9.13645C3.32829 10.0677 4.19517 9.79845 4.53692 9.64281C4.59067 9.24922 4.74588 8.98031 4.91715 8.8283C3.58693 8.67427 2.18859 8.15197 2.18859 5.81798C2.18859 5.15296 2.42254 4.60958 2.80564 4.18301C2.74346 4.02948 2.53847 3.41005 2.86366 2.57103C2.86366 2.57103 3.36657 2.40732 4.51103 3.1954C4.98875 3.06044 5.50108 2.99276 6.01004 2.99044C6.519 2.99276 7.03173 3.06044 7.51034 3.1954C8.65341 2.40732 9.15563 2.57103 9.15563 2.57103C9.48161 3.41005 9.27652 4.02948 9.21434 4.18301C9.59834 4.60958 9.8307 5.15296 9.8307 5.81798C9.8307 8.15752 8.42968 8.67266 7.09609 8.82345C7.3109 9.01248 7.50231 9.38317 7.50231 9.95147C7.50231 10.7664 7.49536 11.4223 7.49536 11.6231C7.49536 11.7852 7.60317 11.9751 7.90674 11.9153C10.285 11.1089 11.9988 8.82648 11.9988 6.13612C11.9988 2.77196 9.31748 0.0449829 6.01004 0.0449829Z" fill="currentColor"/>
<path d="M2.29001 8.79058C2.27684 8.82095 2.23009 8.82992 2.18749 8.80914C2.14411 8.78927 2.11975 8.74802 2.13381 8.71766C2.14669 8.68649 2.19354 8.67792 2.23682 8.69859C2.2803 8.71856 2.30507 8.76022 2.29001 8.79058Z" fill="currentColor"/>
<path d="M2.53259 9.06575C2.50407 9.09268 2.4483 9.08017 2.41047 9.03761C2.37134 8.99514 2.36401 8.93835 2.39294 8.91102C2.42235 8.88409 2.47643 8.89669 2.51566 8.93916C2.55478 8.98213 2.56241 9.03851 2.53259 9.06575Z" fill="currentColor"/>
<path d="M2.76873 9.41661C2.73208 9.44253 2.67216 9.41822 2.63511 9.36406C2.59847 9.30989 2.59847 9.24493 2.63591 9.21891C2.67305 9.19288 2.73208 9.21628 2.76962 9.27005C2.80617 9.32502 2.80617 9.39008 2.76873 9.41661Z" fill="currentColor"/>
<path d="M3.09218 9.75548C3.0594 9.7923 2.98957 9.78242 2.93846 9.73218C2.88616 9.68306 2.8716 9.61336 2.90448 9.57654C2.93767 9.53962 3.00789 9.55001 3.0594 9.59984C3.1113 9.64887 3.12714 9.71907 3.09218 9.75548Z" fill="currentColor"/>
<path d="M3.53838 9.95226C3.52391 9.99997 3.45666 10.0217 3.38891 10.0014C3.32126 9.9805 3.27699 9.92462 3.29066 9.8764C3.30472 9.82839 3.37227 9.80579 3.44052 9.82748C3.50807 9.84826 3.55244 9.90374 3.53838 9.95226Z" fill="currentColor"/>
<path d="M4.02851 9.9888C4.0302 10.039 3.97275 10.0807 3.90163 10.0815C3.83012 10.0832 3.77228 10.0426 3.77148 9.99314C3.77148 9.9424 3.82764 9.90115 3.89916 9.89994C3.97027 9.89853 4.02851 9.93887 4.02851 9.9888Z" fill="currentColor"/>
<path d="M4.48461 9.9098C4.49312 9.95882 4.4437 10.0092 4.37308 10.0225C4.30364 10.0355 4.23936 10.0052 4.23054 9.9566C4.22193 9.90637 4.27224 9.85603 4.34158 9.84302C4.4123 9.83051 4.47559 9.85997 4.48461 9.9098Z" fill="currentColor"/>
</svg>