<svg fill="none" xmlns="http://www.w3.org/2000/svg" id="icon-home">
    <path d="M3.33325 8.5064C3.33325 7.60122 3.33325 7.14864 3.51623 6.75081C3.6992 6.35299 4.04283 6.05845 4.73009 5.46937L5.39675 4.89794C6.63896 3.83319 7.26007 3.30081 7.99992 3.30081C8.73977 3.30081 9.36087 3.83319 10.6031 4.89794L11.2698 5.46937C11.957 6.05845 12.3006 6.35299 12.4836 6.75081C12.6666 7.14864 12.6666 7.60122 12.6666 8.5064V11.3333C12.6666 12.5904 12.6666 13.2189 12.2761 13.6095C11.8855 14 11.257 14 9.99992 14H5.99992C4.74284 14 4.1143 14 3.72378 13.6095C3.33325 13.2189 3.33325 12.5904 3.33325 11.3333V8.5064Z" stroke="currentColor" />
    <path d="M9.66659 14V11C9.66659 10.4477 9.21887 10 8.66659 10H7.33325C6.78097 10 6.33325 10.4477 6.33325 11V14" stroke="currentColor" stroke-linecap="round" stroke-linejoin="round" />
</svg>
    