<svg fill="none" xmlns="http://www.w3.org/2000/svg" id="icon-linkedin">
<path fill-rule="evenodd" clip-rule="evenodd" d="M6 0C2.68629 0 0 2.68629 0 6C0 9.31371 2.68629 12 6 12C9.31371 12 12 9.31371 12 6C12 2.68629 9.31371 0 6 0ZM2.88041 4.96947H4.24014V9.05489H2.88041V4.96947ZM4.32968 3.70567C4.32086 3.3051 4.0344 3 3.56925 3C3.10409 3 2.79999 3.3051 2.79999 3.70567C2.79999 4.09795 3.0951 4.41184 3.5516 4.41184H3.56029C4.0344 4.41184 4.32968 4.09795 4.32968 3.70567ZM7.57828 4.87354C8.47305 4.87354 9.14385 5.45758 9.14385 6.71244L9.14379 9.0549H7.78412V6.8692C7.78412 6.32019 7.58735 5.94557 7.09513 5.94557C6.71947 5.94557 6.49572 6.19812 6.39745 6.44205C6.36149 6.52947 6.35267 6.65127 6.35267 6.77337V9.05501H4.99277C4.99277 9.05501 5.0107 5.35294 4.99277 4.96958H6.35267V5.54825C6.53314 5.27007 6.85636 4.87354 7.57828 4.87354Z" fill="currentColor"/>
</svg>
