<svg viewBox="0 0 16 16" fill="none" xmlns="http://www.w3.org/2000/svg" id="icon-linkedin">
    <path fill-rule="evenodd" clip-rule="evenodd" d="M8 0C3.58172 0 0 3.58172 0 8C0 12.4183 3.58172 16 8 16C12.4183 16 16 12.4183 16 8C16 3.58172 12.4183 0 8 0ZM3.84054 6.62596H5.65352V12.0732H3.84054V6.62596ZM5.77291 4.9409C5.76114 4.4068 5.3792 4 4.759 4C4.13879 4 3.73332 4.4068 3.73332 4.9409C3.73332 5.46393 4.12681 5.88245 4.73546 5.88245H4.74705C5.3792 5.88245 5.77291 5.46393 5.77291 4.9409ZM10.1044 6.49805C11.2974 6.49805 12.1918 7.27677 12.1918 8.94992L12.1917 12.0732H10.3788V9.15893C10.3788 8.42692 10.1165 7.92742 9.46017 7.92742C8.95929 7.92742 8.66096 8.26416 8.52993 8.5894C8.48199 8.70596 8.47022 8.86836 8.47022 9.03116V12.0733H6.65703C6.65703 12.0733 6.68092 7.13725 6.65703 6.62611H8.47022V7.39766C8.71085 7.02676 9.14181 6.49805 10.1044 6.49805Z" fill="currentColor" />
</svg>
    