<svg fill="none" xmlns="http://www.w3.org/2000/svg" id="icon-moon">
    <path d="M9.84062 11.7024L9.49301 12.0618L9.84062 11.7024ZM8.79719 8.06287C8.79719 6.77526 9.32988 5.61293 10.1882 4.78273L9.49301 4.06393C8.44793 5.07474 7.79719 6.49325 7.79719 8.06287H8.79719ZM10.1882 11.343C9.32988 10.5128 8.79719 9.35048 8.79719 8.06287H7.79719C7.79719 9.63249 8.44793 11.051 9.49301 12.0618L10.1882 11.343ZM9.56287 12.6257C7.04287 12.6257 5 10.5829 5 8.06287H4C4 11.1352 6.49058 13.6257 9.56287 13.6257V12.6257ZM5 8.06287C5 5.54287 7.04287 3.5 9.56287 3.5V2.5C6.49058 2.5 4 4.99058 4 8.06287H5ZM9.49301 12.0618C9.63184 12.1961 9.68386 12.3904 9.66366 12.5238C9.65436 12.5852 9.63419 12.608 9.63027 12.6118C9.62846 12.6135 9.62602 12.6156 9.6199 12.6179C9.61337 12.6204 9.59602 12.6257 9.56287 12.6257V13.6257C9.85698 13.6257 10.1223 13.5256 10.3227 13.3333C10.5167 13.1471 10.6171 12.9063 10.6524 12.6735C10.7213 12.2182 10.5583 11.7009 10.1882 11.343L9.49301 12.0618ZM10.1882 4.78273C10.5583 4.42484 10.7213 3.9075 10.6524 3.45227C10.6171 3.2194 10.5167 2.97865 10.3227 2.79244C10.1223 2.60017 9.85698 2.5 9.56287 2.5V3.5C9.59602 3.5 9.61337 3.50532 9.61991 3.50783C9.62602 3.51017 9.62846 3.5122 9.63027 3.51393C9.63419 3.5177 9.65436 3.5405 9.66366 3.60195C9.68386 3.73534 9.63184 3.92966 9.49301 4.06393L10.1882 4.78273Z" fill="currentColor" />
    <rect x="0.5" y="0.5" width="15" height="15" rx="3.5" stroke="currentColor" />
</svg>
    