<svg fill="none" xmlns="http://www.w3.org/2000/svg" id="icon-moon">
<path d="M19.6812 23.4048L20.0289 23.0454L19.6812 23.4048ZM21.145 25.1324L21.6414 25.0728L21.145 25.1324ZM20.783 26.0274L21.0984 26.4153L20.783 26.0274ZM21.145 7.11911L21.6414 7.17867L21.145 7.11911ZM20.783 6.22411L21.0984 5.83617L20.783 6.22411ZM17.0944 16.1257C17.0944 13.4095 18.2188 10.9567 20.0289 9.20604L19.3336 8.48724C17.3368 10.4186 16.0944 13.1275 16.0944 16.1257H17.0944ZM20.0289 23.0454C18.2188 21.2947 17.0944 18.842 17.0944 16.1257H16.0944C16.0944 19.124 17.3368 21.8329 19.3336 23.7642L20.0289 23.0454ZM19.1257 25.7515C13.8096 25.7515 9.5 21.4419 9.5 16.1257H8.5C8.5 21.9942 13.2573 26.7515 19.1257 26.7515V25.7515ZM9.5 16.1257C9.5 10.8096 13.8096 6.5 19.1257 6.5V5.5C13.2573 5.5 8.5 10.2573 8.5 16.1257H9.5ZM19.3336 23.7642C19.8137 24.2286 20.1521 24.5564 20.3785 24.8117C20.4905 24.9381 20.5616 25.032 20.6048 25.1028C20.6483 25.1742 20.6495 25.1996 20.6486 25.1919L21.6414 25.0728C21.5999 24.7262 21.367 24.4193 21.1268 24.1484C20.8687 23.8572 20.4964 23.4976 20.0289 23.0454L19.3336 23.7642ZM19.1257 26.7515C19.575 26.7515 19.9518 26.7521 20.249 26.7207C20.5492 26.6889 20.849 26.6181 21.0984 26.4153L20.4676 25.6394C20.4414 25.6607 20.373 25.702 20.1438 25.7262C19.9116 25.7508 19.5975 25.7515 19.1257 25.7515V26.7515ZM20.6486 25.1919C20.669 25.3622 20.6006 25.5312 20.4676 25.6394L21.0984 26.4153C21.4977 26.0907 21.7027 25.5838 21.6414 25.0728L20.6486 25.1919ZM20.0289 9.20604C20.4964 8.75384 20.8687 8.39424 21.1268 8.10311C21.367 7.83214 21.5999 7.52532 21.6414 7.17867L20.6486 7.05956C20.6495 7.05185 20.6483 7.07729 20.6048 7.14864C20.5616 7.21953 20.4905 7.31343 20.3785 7.43977C20.1521 7.69509 19.8137 8.0229 19.3336 8.48724L20.0289 9.20604ZM19.1257 6.5C19.5975 6.5 19.9116 6.50066 20.1438 6.52524C20.373 6.5495 20.4414 6.59077 20.4676 6.61206L21.0984 5.83617C20.849 5.63334 20.5492 5.56256 20.249 5.53079C19.9518 5.49934 19.575 5.5 19.1257 5.5V6.5ZM21.6414 7.17867C21.7027 6.66772 21.4977 6.16082 21.0984 5.83617L20.4676 6.61206C20.6006 6.72024 20.669 6.8893 20.6486 7.05956L21.6414 7.17867Z" fill="currentColor"/>
<rect x="0.5" y="0.5" width="31" height="31" rx="3.5" stroke="currentColor"/>
</svg>
