<svg fill="none" xmlns="http://www.w3.org/2000/svg" id="icon-pencil">
<path d="M6.47995 25.5201L6.83277 25.1673L6.47995 25.5201C6.68936 25.7295 6.95042 25.733 7.10515 25.7179C7.2457 25.7041 7.41306 25.6622 7.56976 25.623C7.57868 25.6207 7.58756 25.6185 7.59641 25.6163L11.5839 24.6194C11.599 24.6156 11.614 24.6119 11.6289 24.6082C11.8516 24.5528 12.0488 24.5037 12.2278 24.4023C12.4069 24.301 12.5504 24.1571 12.7125 23.9947C12.7233 23.9838 12.7343 23.9729 12.7453 23.9618L22.9394 13.7678L22.9627 13.7445C23.2761 13.4311 23.5461 13.1611 23.7333 12.9157C23.9339 12.6528 24.0858 12.3604 24.0858 12C24.0858 11.6396 23.9339 11.3472 23.7333 11.0843C23.5461 10.8389 23.2761 10.5689 22.9626 10.2555L22.9498 10.2426L22.9394 10.2322L21.7678 9.06066L21.7445 9.03739C21.4311 8.72395 21.1611 8.45388 20.9157 8.2667C20.6528 8.0661 20.3604 7.91421 20 7.91421C19.6396 7.91421 19.3472 8.0661 19.0843 8.2667C18.839 8.45388 18.5689 8.72395 18.2555 9.03738L18.2323 9.06066L8.03818 19.2547C8.02716 19.2658 8.01621 19.2767 8.00535 19.2875C7.84288 19.4496 7.69905 19.5932 7.59768 19.7722C7.49632 19.9512 7.44725 20.1484 7.39182 20.3711C7.38811 20.386 7.38437 20.401 7.38059 20.4162L6.38373 24.4036C6.38151 24.4125 6.37929 24.4214 6.37705 24.4303C6.33781 24.587 6.29589 24.7543 6.28215 24.8949C6.26701 25.0496 6.27054 25.3107 6.47995 25.5201Z" stroke="currentColor"/>
</svg>
