<svg viewBox="0 0 16 16" fill="none" xmlns="http://www.w3.org/2000/svg" id="icon-website">
    <path d="M2 2V1.5H1.5V2H2ZM8.31311 9.02022C8.50838 9.21548 8.82496 9.21548 9.02022 9.02022C9.21548 8.82496 9.21548 8.50838 9.02022 8.31311L8.31311 9.02022ZM2.5 7.33333V2H1.5V7.33333H2.5ZM2 2.5H7.33333V1.5H2V2.5ZM1.64645 2.35355L8.31311 9.02022L9.02022 8.31311L2.35355 1.64645L1.64645 2.35355Z" fill="currentColor" />
    <path d="M2.66675 9.99999V9.99999C2.66675 10.3095 2.66675 10.4643 2.67816 10.5948C2.80505 12.0451 3.95494 13.195 5.40528 13.3219C5.53577 13.3333 5.69054 13.3333 6.00008 13.3333H8.00008C10.1862 13.3333 11.2793 13.3333 12.0541 12.7908C12.3408 12.5901 12.5901 12.3407 12.7909 12.054C13.3334 11.2792 13.3334 10.1861 13.3334 7.99999V5.99999C13.3334 5.69045 13.3334 5.53567 13.322 5.40519C13.1951 3.95485 12.0452 2.80496 10.5949 2.67807C10.4644 2.66666 10.3096 2.66666 10.0001 2.66666V2.66666" stroke="currentColor" stroke-linecap="round" />
</svg>
    